<svg xmlns="http://www.w3.org/2000/svg" width="201.031" height="33.231" viewBox="0 0 201.031 33.231">
  <g id="Group_11716" data-name="Group 11716" transform="translate(0.659 0.001)">
    <g id="Group_1" data-name="Group 1" transform="translate(0 -0.001)">
      <path id="Union_1" data-name="Union 1" d="M176.548,20.721a10.713,10.713,0,0,1-3.136-7.9,10.814,10.814,0,0,1,3.094-7.882,10.645,10.645,0,0,1,7.945-3.155,9.973,9.973,0,0,1,7.59,3.176,11.031,11.031,0,0,1,2.99,7.862,12.473,12.473,0,0,1-.209,2.216H179.057a5.357,5.357,0,0,0,5.9,3.931,5.518,5.518,0,0,0,4.684-2.091l4.349,2.509a10.371,10.371,0,0,1-9.116,4.474,11.253,11.253,0,0,1-8.322-3.136Zm4.307-12.984a5.309,5.309,0,0,0-1.882,3.115h10.663a5.052,5.052,0,0,0-1.9-3.178,5.461,5.461,0,0,0-3.283-1.045,5.683,5.683,0,0,0-3.6,1.108ZM151.27,20.658a11.056,11.056,0,0,1-2.99-7.841,11.054,11.054,0,0,1,2.99-7.841,9.513,9.513,0,0,1,7.213-3.2,8.088,8.088,0,0,1,6.774,3.053V-6h5.394V23.272h-5.394V20.8a8.092,8.092,0,0,1-6.774,3.053A9.52,9.52,0,0,1,151.27,20.658Zm4.056-12.085a5.739,5.739,0,0,0-1.652,4.244,5.854,5.854,0,0,0,1.631,4.265,5.754,5.754,0,0,0,4.182,1.631,5.574,5.574,0,0,0,4.14-1.652,5.79,5.79,0,0,0,1.631-4.244,5.79,5.79,0,0,0-1.631-4.244,5.574,5.574,0,0,0-4.14-1.652,5.645,5.645,0,0,0-4.161,1.652Zm-29.1,12.085a11.056,11.056,0,0,1-2.99-7.841,11.054,11.054,0,0,1,2.99-7.841,9.469,9.469,0,0,1,7.172-3.2,8.2,8.2,0,0,1,6.816,3.053V2.363H145.6V23.272h-5.394V20.8a8.209,8.209,0,0,1-6.816,3.053A9.476,9.476,0,0,1,126.221,20.658Zm4.035-12.085a5.79,5.79,0,0,0-1.631,4.244,5.854,5.854,0,0,0,1.629,4.265,6.063,6.063,0,0,0,8.3-.021,5.739,5.739,0,0,0,1.654-4.244,5.739,5.739,0,0,0-1.652-4.244A5.645,5.645,0,0,0,134.4,6.921,5.574,5.574,0,0,0,130.257,8.573ZM44.824,20.721a10.713,10.713,0,0,1-3.136-7.9,10.814,10.814,0,0,1,3.094-7.882A10.645,10.645,0,0,1,52.728,1.78a9.973,9.973,0,0,1,7.59,3.176,11.031,11.031,0,0,1,2.99,7.862,12.47,12.47,0,0,1-.209,2.216H47.333a5.357,5.357,0,0,0,5.9,3.931,5.518,5.518,0,0,0,4.684-2.091l4.349,2.509a10.371,10.371,0,0,1-9.116,4.474A11.253,11.253,0,0,1,44.824,20.721ZM49.132,7.737a5.309,5.309,0,0,0-1.882,3.115H57.913a5.051,5.051,0,0,0-1.9-3.178,5.461,5.461,0,0,0-3.283-1.045,5.683,5.683,0,0,0-3.6,1.108ZM116.5,23.272v-12.5a4.282,4.282,0,0,0-.92-2.927A3.272,3.272,0,0,0,112.986,6.8a3.554,3.554,0,0,0-2.864,1.213,5.3,5.3,0,0,0-1.025,3.513V23.272H103.7v-12.5a4.282,4.282,0,0,0-.92-2.927A3.272,3.272,0,0,0,100.19,6.8a3.626,3.626,0,0,0-2.864,1.213,5.166,5.166,0,0,0-1.066,3.513V23.272H90.865V2.363h5.394V4.58a6.509,6.509,0,0,1,5.813-2.8,6.2,6.2,0,0,1,5.687,3.011,7.086,7.086,0,0,1,6.231-3.011,7.429,7.429,0,0,1,5.75,2.342,8.9,8.9,0,0,1,2.154,6.273v12.88Zm-87.439,0L23.539,3.952,18.061,23.272H11.5L3.3-6H9.363l5.6,21.7L21.072-6h4.934l6.147,21.7L37.757-6h6.063l-8.2,29.272Z" transform="translate(-3.3 7.491)" stroke="rgba(0,0,0,0)" stroke-width="1"/>
      <path id="Union_2" data-name="Union 2" d="M15.662-2.489,10.408,24.54l-5.3-1.029L10.941-6.455l5,.97,4.414-.937L26.688,23.44,21.41,24.561Z" transform="translate(56.71 6.455)" fill="#fa6401"/>
    </g>
    <g id="All_rights_reserved_logo" transform="translate(191.736 24.594)">
      <path id="Path_1" data-name="Path 1" d="M4.31,0A4.214,4.214,0,0,1,7.394,1.265a4.146,4.146,0,0,1,.925,1.392,4.391,4.391,0,0,1,.317,1.662,4.406,4.406,0,0,1-.312,1.661A3.966,3.966,0,0,1,7.4,7.348,4.442,4.442,0,0,1,5.968,8.3a4.3,4.3,0,0,1-1.658.331,4.2,4.2,0,0,1-1.639-.328,4.341,4.341,0,0,1-1.4-.948,4.3,4.3,0,0,1-.945-1.4,4.313,4.313,0,0,1,0-3.289A4.337,4.337,0,0,1,1.28,1.257,4.081,4.081,0,0,1,4.31,0Zm.016.779a3.347,3.347,0,0,0-2.49,1.033,3.714,3.714,0,0,0-.783,1.16,3.424,3.424,0,0,0,0,2.683,3.655,3.655,0,0,0,1.932,1.92,3.5,3.5,0,0,0,2.687,0,3.73,3.73,0,0,0,1.176-.779,3.318,3.318,0,0,0,1.01-2.475,3.546,3.546,0,0,0-.262-1.357A3.458,3.458,0,0,0,6.832,1.82,3.417,3.417,0,0,0,4.325.779Z" transform="translate(0 0)"/>
      <path id="Path_2" data-name="Path 2" d="M18.317,17.253l-.112-.07a1.432,1.432,0,1,1,0-1.922l.112-.07.77-.478a2.461,2.461,0,1,0,0,3.016Z" transform="translate(-12.703 -11.904)"/>
    </g>
  </g>
</svg>
